<?xml version="1.0" standalone="no"?>
<!DOCTYPE svg PUBLIC "-//W3C//DTD SVG 20010904//EN"
 "http://www.w3.org/TR/2001/REC-SVG-20010904/DTD/svg10.dtd">
<svg version="1.0" xmlns="http://www.w3.org/2000/svg"
 width="512.000000pt" height="512.000000pt" viewBox="0 0 512.000000 512.000000"
 preserveAspectRatio="xMidYMid meet">

<g transform="translate(0.000000,512.000000) scale(0.100000,-0.100000)"
fill="#000000" stroke="none">
<path d="M1910 5114 c-351 -29 -675 -132 -947 -302 -652 -405 -1027 -1160
-952 -1918 22 -223 87 -466 175 -652 l44 -94 -25 -48 c-52 -102 -113 -274
-147 -410 -7 -32 -13 -111 -13 -190 0 -131 1 -137 32 -202 40 -84 97 -142 181
-181 59 -28 80 -32 172 -35 172 -6 353 37 587 141 l102 46 49 -21 c46 -19 50
-25 105 -133 133 -261 329 -503 549 -677 268 -211 619 -361 967 -413 384 -56
789 0 1137 159 l81 38 59 -30 c33 -16 103 -46 157 -66 291 -109 513 -124 665
-47 86 44 156 141 182 250 15 64 8 247 -14 331 -36 144 -85 279 -142 392 l-24
48 28 57 c160 319 231 741 187 1103 -84 699 -491 1281 -1114 1594 l-91 46 -46
93 c-301 602 -853 1002 -1519 1101 -103 15 -345 27 -425 20z m358 -440 c310
-49 558 -159 795 -352 64 -52 247 -238 247 -251 0 -3 -102 -6 -228 -6 -173 -1
-250 -5 -322 -19 -451 -83 -814 -269 -1115 -571 -303 -303 -492 -671 -572
-1115 -18 -103 -25 -447 -10 -571 l7 -65 -137 -67 c-144 -69 -343 -140 -427
-152 l-48 -8 7 44 c20 116 82 285 176 474 38 77 69 143 69 147 0 3 -21 42 -47
85 -100 168 -163 329 -203 520 -28 128 -37 375 -20 509 90 720 640 1286 1357
1398 123 19 352 19 471 0z m982 -1039 c247 -20 557 -138 775 -295 118 -85 283
-252 368 -370 79 -111 185 -321 221 -437 59 -189 70 -272 70 -498 0 -181 -3
-224 -23 -315 -39 -184 -103 -345 -206 -524 -25 -44 -45 -83 -45 -87 0 -4 27
-58 59 -121 33 -62 78 -159 101 -216 37 -95 90 -275 90 -308 0 -46 -379 88
-608 214 l-53 29 -107 -59 c-294 -164 -558 -228 -882 -215 -224 10 -412 55
-610 149 -491 230 -829 689 -911 1233 -17 113 -14 350 5 470 77 471 343 870
747 1120 186 115 410 196 624 224 138 19 204 20 385 6z"/>
<path d="M2970 3293 c-53 -9 -218 -54 -268 -73 -448 -172 -779 -567 -868
-1037 -18 -98 -12 -142 28 -204 34 -51 120 -91 184 -87 114 9 177 76 208 218
79 369 362 663 717 745 41 10 91 21 112 27 46 11 109 66 132 115 21 44 22 125
1 173 -38 89 -140 141 -246 123z"/>
</g>
</svg>
