<?xml version="1.0" standalone="no"?>
<!DOCTYPE svg PUBLIC "-//W3C//DTD SVG 20010904//EN"
 "http://www.w3.org/TR/2001/REC-SVG-20010904/DTD/svg10.dtd">
<svg version="1.0" xmlns="http://www.w3.org/2000/svg"
 width="512.000000pt" height="511.000000pt" viewBox="0 0 512.000000 511.000000"
 preserveAspectRatio="xMidYMid meet">

<g transform="translate(0.000000,511.000000) scale(0.100000,-0.100000)"
fill="#000000" stroke="none">
<path d="M4391 4206 c-121 -44 -184 -179 -157 -341 l8 -50 -222 -160 c-132
-96 -228 -158 -238 -156 -9 2 -46 4 -82 4 -59 0 -76 -5 -180 -55 -240 -115
-467 -168 -727 -168 -192 0 -406 -54 -555 -139 -220 -126 -390 -342 -460 -586
-19 -68 -23 -104 -23 -240 0 -137 3 -171 23 -236 12 -41 22 -79 22 -83 0 -4
-197 -6 -437 -3 -521 5 -666 22 -935 103 l-87 27 -30 71 c-47 114 -64 227 -58
391 8 215 53 381 159 586 207 404 589 708 1026 819 372 94 812 51 1242 -120
170 -68 352 -169 505 -280 39 -28 80 -53 93 -56 77 -20 124 72 65 128 -75 69
-261 187 -424 269 -489 245 -1067 324 -1521 208 -607 -154 -1107 -650 -1257
-1244 -62 -245 -59 -516 8 -707 70 -203 214 -375 409 -489 l67 -39 -231 0
c-229 0 -230 0 -283 -26 -78 -39 -111 -95 -111 -188 0 -88 29 -143 98 -183 45
-27 54 -28 217 -33 l170 -5 34 -84 c45 -109 114 -186 203 -227 l63 -29 1765 0
1765 0 63 29 c89 41 158 118 203 227 l34 84 171 5 c168 5 171 5 219 35 68 42
109 118 103 192 -6 76 -49 140 -117 175 l-53 28 -412 0 -411 1 75 28 c259 96
422 209 485 335 49 99 26 237 -58 331 -54 63 -114 100 -272 169 -71 32 -158
73 -192 92 -68 38 -98 42 -128 16 -54 -44 -41 -92 35 -141 l58 -36 -67 -53
c-77 -61 -197 -125 -331 -175 -157 -58 -145 -62 -110 36 83 234 203 431 371
602 72 75 108 138 109 195 1 34 8 41 198 181 271 201 236 184 310 148 179 -89
362 -12 400 168 30 137 -62 286 -198 323 l-37 10 -5 68 c-8 109 -65 193 -162
238 -57 27 -147 31 -205 10z m177 -170 l37 -34 0 -89 c1 -48 6 -97 12 -109 18
-32 57 -53 115 -64 61 -12 104 -47 117 -98 21 -73 -31 -142 -106 -142 -15 0
-57 14 -93 31 -80 39 -151 42 -204 11 -19 -11 -97 -67 -173 -125 -76 -57 -164
-122 -195 -145 l-56 -42 -50 68 c-27 37 -52 72 -56 79 -4 7 71 67 204 164 116
83 219 163 230 177 35 44 45 95 33 173 -19 120 15 179 103 179 36 0 51 -6 82
-34z m-824 -698 c32 -29 196 -256 196 -271 0 -19 -30 -57 -104 -132 -184 -188
-277 -353 -420 -740 -86 -234 -231 -402 -433 -504 l-62 -31 -291 0 c-277 0
-293 1 -333 21 -166 85 -294 228 -352 396 -130 376 72 807 455 968 115 49 205
65 445 80 330 21 496 60 730 176 66 32 125 59 132 59 7 0 23 -10 37 -22z
m1190 -1849 c34 -26 34 -62 0 -88 l-27 -21 -1668 0 c-917 0 -1675 -3 -1684 -6
-10 -4 -23 -21 -30 -37 -16 -39 -3 -80 31 -96 18 -8 409 -11 1459 -11 789 0
1435 -2 1435 -5 0 -3 -7 -22 -15 -42 -24 -57 -62 -101 -108 -126 l-42 -22
-1735 0 -1735 0 -42 22 c-46 25 -84 69 -108 126 -8 20 -15 39 -15 42 0 3 135
5 300 5 321 0 342 3 358 50 11 32 -7 84 -33 94 -9 3 -256 6 -549 6 -524 0
-534 0 -560 21 -34 26 -34 62 0 88 l27 21 2357 0 2357 0 27 -21z"/>
</g>
</svg>
