<?xml version="1.0" standalone="no"?>
<!DOCTYPE svg PUBLIC "-//W3C//DTD SVG 20010904//EN"
 "http://www.w3.org/TR/2001/REC-SVG-20010904/DTD/svg10.dtd">
<svg version="1.0" xmlns="http://www.w3.org/2000/svg"
 width="512.000000pt" height="512.000000pt" viewBox="0 0 512.000000 512.000000"
 preserveAspectRatio="xMidYMid meet">

<g transform="translate(0.000000,512.000000) scale(0.100000,-0.100000)"
fill="#000000" stroke="none">
<path d="M2560 4670 l0 -450 -1194 -2 -1193 -3 894 -905 894 -905 300 -3 299
-2 0 -1060 c0 -583 3 -1060 8 -1059 19 1 549 368 567 392 20 28 20 42 25 881
l5 853 898 907 898 907 -3 399 c-3 385 -4 400 -24 426 -11 15 -33 37 -48 48
-27 21 -34 21 -1177 24 l-1149 2 0 -450z"/>
</g>
</svg>
