<?xml version="1.0" standalone="no"?>
<!DOCTYPE svg PUBLIC "-//W3C//DTD SVG 20010904//EN"
 "http://www.w3.org/TR/2001/REC-SVG-20010904/DTD/svg10.dtd">
<svg version="1.0" xmlns="http://www.w3.org/2000/svg"
 width="512.000000pt" height="512.000000pt" viewBox="0 0 512.000000 512.000000"
 preserveAspectRatio="xMidYMid meet">

<g transform="translate(0.000000,512.000000) scale(0.100000,-0.100000)"
fill="#000000" stroke="none">
<path d="M2435 5090 c-27 -11 -81 -44 -118 -74 -119 -96 -234 -114 -382 -62
-68 24 -90 28 -150 23 -38 -3 -91 -15 -118 -26 -61 -27 -143 -103 -173 -164
-34 -65 -95 -124 -163 -155 -44 -20 -79 -27 -163 -33 -82 -5 -120 -13 -162
-32 -114 -52 -186 -148 -211 -282 -19 -95 -45 -146 -106 -206 -34 -33 -69 -55
-121 -75 -127 -47 -189 -101 -237 -204 -23 -49 -25 -65 -22 -145 8 -241 8
-236 -26 -305 -23 -48 -51 -82 -104 -129 -100 -90 -134 -161 -134 -282 0 -84
1 -89 50 -183 l50 -97 0 -99 c0 -98 0 -99 -49 -193 -58 -113 -69 -187 -42
-281 23 -80 53 -123 131 -192 48 -42 75 -76 98 -123 34 -70 34 -65 26 -306 -3
-80 -1 -96 22 -145 48 -103 110 -157 237 -204 52 -20 87 -42 121 -75 61 -60
87 -111 105 -205 27 -137 96 -230 210 -282 48 -22 81 -28 170 -34 92 -6 120
-12 164 -34 66 -33 124 -91 156 -153 30 -61 112 -137 173 -164 27 -11 80 -23
118 -26 59 -5 82 -1 150 22 151 52 263 34 382 -61 86 -68 152 -94 243 -94 91
0 157 26 244 94 120 96 233 114 381 62 68 -24 90 -28 150 -23 39 3 91 15 118
26 61 27 143 103 173 164 32 62 90 120 156 153 44 22 73 28 165 35 87 6 125
13 167 32 114 52 186 148 211 282 19 95 45 146 106 206 34 33 69 55 121 75
127 47 189 101 237 204 23 49 25 65 22 145 -8 241 -8 236 26 305 23 48 51 82
104 129 100 90 134 161 134 282 0 84 -1 89 -50 183 l-50 97 0 99 0 99 50 97
c49 94 50 99 50 183 0 121 -34 192 -134 282 -53 47 -81 81 -104 129 -34 69
-34 62 -26 305 3 75 0 98 -19 138 -47 105 -114 164 -240 211 -52 20 -87 42
-121 75 -61 60 -87 111 -106 206 -25 134 -97 230 -211 282 -42 19 -80 26 -167
32 -92 7 -121 13 -165 35 -66 33 -124 91 -156 153 -30 61 -112 137 -173 164
-27 11 -79 23 -118 26 -60 5 -82 1 -150 -23 -148 -52 -264 -34 -379 61 -36 29
-91 63 -121 74 -73 27 -181 27 -250 1z m232 -173 c21 -15 62 -45 90 -66 120
-88 303 -111 452 -58 93 34 124 34 189 1 41 -20 59 -38 89 -87 105 -173 260
-267 442 -267 144 0 217 -60 241 -200 29 -174 168 -337 330 -388 114 -36 173
-130 151 -241 -24 -121 -7 -244 49 -350 31 -57 70 -103 151 -176 46 -41 69
-93 69 -153 0 -16 -20 -68 -44 -114 -50 -96 -69 -166 -69 -258 0 -92 19 -162
69 -258 24 -46 44 -98 44 -114 0 -60 -23 -112 -69 -153 -81 -73 -120 -119
-151 -176 -56 -106 -73 -229 -49 -350 22 -111 -37 -205 -151 -241 -162 -51
-300 -214 -330 -387 -26 -149 -90 -201 -245 -201 -177 0 -334 -96 -438 -267
-30 -49 -48 -67 -89 -87 -65 -33 -96 -33 -189 1 -148 53 -331 30 -449 -56
-135 -99 -129 -96 -200 -96 -71 0 -66 -3 -197 94 -120 88 -303 111 -452 58
-93 -34 -124 -34 -189 -1 -41 20 -59 38 -89 87 -105 173 -260 267 -442 267
-144 0 -216 60 -241 200 -16 94 -60 181 -127 252 -70 74 -125 111 -209 138
-113 38 -167 127 -145 239 35 174 -17 350 -137 464 -99 94 -108 105 -120 145
-20 65 -14 92 38 197 88 178 88 313 -2 493 -43 87 -50 108 -46 145 8 65 35
112 88 153 147 112 218 311 179 505 -22 111 32 201 144 238 83 28 127 56 198
127 71 69 123 168 139 264 24 140 97 200 241 200 182 0 337 94 442 267 30 49
48 67 89 87 65 32 96 32 185 1 177 -61 359 -30 498 86 69 58 100 70 167 66 42
-2 66 -10 95 -30z"/>
<path d="M2517 4866 c-15 -8 -48 -33 -75 -54 -140 -118 -359 -158 -535 -98
-42 14 -89 26 -103 26 -43 0 -80 -30 -116 -93 -60 -108 -217 -230 -343 -267
-22 -6 -86 -15 -143 -19 -96 -7 -105 -9 -132 -37 -23 -22 -33 -47 -45 -109
-41 -202 -175 -360 -366 -433 -97 -37 -125 -73 -112 -147 4 -27 8 -93 8 -145
0 -170 -61 -301 -203 -437 -74 -71 -75 -72 -70 -115 3 -24 19 -65 35 -93 54
-89 68 -146 68 -285 0 -139 -14 -196 -68 -285 -16 -27 -32 -69 -35 -93 -5 -43
-4 -44 70 -115 143 -137 203 -267 203 -437 0 -52 -4 -117 -8 -145 -12 -72 15
-110 103 -145 82 -32 103 -43 168 -93 102 -78 178 -204 207 -342 12 -62 23
-87 45 -109 27 -28 35 -30 137 -37 215 -14 379 -112 483 -290 57 -97 89 -106
217 -63 180 61 406 17 549 -106 85 -75 119 -75 205 -4 155 129 366 171 554
110 44 -14 91 -26 103 -26 41 0 79 31 114 93 91 162 305 287 493 287 72 0 122
17 142 50 7 10 20 54 28 96 42 201 169 352 362 430 102 40 129 75 116 149 -4
28 -8 93 -8 145 0 170 61 301 201 436 98 93 98 95 8 264 -32 60 -46 153 -41
260 5 114 25 186 72 261 16 24 30 63 33 87 5 43 4 44 -70 115 -142 136 -203
267 -203 437 0 52 4 118 8 145 13 74 -14 109 -115 149 -194 79 -322 230 -363
431 -12 62 -22 87 -45 109 -27 28 -35 30 -137 37 -116 8 -201 33 -284 84 -68
42 -157 134 -199 206 -57 97 -85 105 -215 63 -182 -59 -396 -20 -537 98 -53
43 -95 68 -118 68 -8 0 -27 -7 -43 -14z m95 -209 c25 -18 78 -48 117 -66 l71
-33 0 -1998 0 -1998 -75 -35 c-41 -20 -96 -50 -121 -68 l-46 -31 -43 31 c-24
17 -78 48 -119 67 l-76 36 0 1998 0 1998 71 33 c39 18 92 48 117 66 26 18 49
33 52 33 3 0 26 -15 52 -33z m-1092 -2098 c0 -1626 -1 -1711 -17 -1704 -82 34
-170 58 -235 62 l-78 6 -10 41 c-18 72 -61 169 -101 230 l-39 58 0 1308 0
1307 44 67 c43 65 75 139 96 222 l10 41 74 6 c43 3 108 18 157 35 46 16 87 30
92 31 4 1 7 -769 7 -1710z m2185 1674 c39 -13 105 -27 147 -30 l78 -6 10 -41
c20 -80 62 -175 101 -231 l39 -56 0 -1308 0 -1308 -44 -67 c-43 -65 -75 -139
-96 -222 l-10 -41 -73 -6 c-40 -3 -106 -17 -147 -31 -41 -15 -83 -29 -92 -33
-17 -5 -18 81 -18 1707 0 1627 1 1712 18 1705 9 -4 49 -18 87 -32z m-1545
-393 l0 -240 -240 0 -240 0 0 240 0 240 240 0 240 0 0 -240z m1280 0 l0 -240
-240 0 -240 0 0 240 0 240 240 0 240 0 0 -240z m-2560 -185 l0 -55 -85 0 c-98
0 -114 16 -42 44 23 9 58 27 77 40 19 14 38 25 43 26 4 0 7 -25 7 -55z m3416
25 c26 -16 62 -34 81 -41 18 -6 33 -17 33 -25 0 -11 -18 -14 -85 -14 l-85 0 0
55 c0 30 2 55 5 55 2 0 25 -13 51 -30z m-3416 -1120 l0 -240 -180 0 c-99 0
-180 2 -180 4 0 2 7 33 16 68 10 39 17 103 17 168 0 65 -7 129 -17 168 -9 35
-16 66 -16 68 0 2 81 4 180 4 l180 0 0 -240z m1280 0 l0 -240 -240 0 -240 0 0
240 0 240 240 0 240 0 0 -240z m1280 0 l0 -240 -240 0 -240 0 0 240 0 240 240
0 240 0 0 -240z m1160 236 c0 -2 -7 -33 -16 -68 -22 -83 -22 -253 0 -336 9
-35 16 -66 16 -68 0 -2 -81 -4 -180 -4 l-180 0 0 240 0 240 180 0 c99 0 180
-2 180 -4z m-3720 -1331 c0 -30 -2 -55 -5 -55 -2 0 -25 13 -51 30 -26 16 -62
34 -81 41 -18 6 -33 17 -33 25 0 11 18 14 85 14 l85 0 0 -55z m1280 -185 l0
-240 -240 0 -240 0 0 240 0 240 240 0 240 0 0 -240z m1280 0 l0 -240 -240 0
-240 0 0 240 0 240 240 0 240 0 0 -240z m967 223 c2 -6 -11 -16 -30 -22 -19
-6 -55 -25 -81 -41 -26 -17 -49 -30 -51 -30 -3 0 -5 25 -5 55 l0 56 82 -3 c50
-2 83 -7 85 -15z"/>
</g>
</svg>
