<?xml version="1.0" standalone="no"?>
<!DOCTYPE svg PUBLIC "-//W3C//DTD SVG 20010904//EN"
 "http://www.w3.org/TR/2001/REC-SVG-20010904/DTD/svg10.dtd">
<svg version="1.0" xmlns="http://www.w3.org/2000/svg"
 width="512.000000pt" height="512.000000pt" viewBox="0 0 512.000000 512.000000"
 preserveAspectRatio="xMidYMid meet">

<g transform="translate(0.000000,512.000000) scale(0.100000,-0.100000)"
fill="#000000" stroke="none">
<path d="M2910 4660 c-8 -5 -12 -11 -10 -13 3 -2 22 -16 42 -31 50 -37 92
-123 86 -174 -5 -30 -25 -86 -45 -123 -2 -4 9 -9 24 -11 15 -3 36 -8 45 -12
23 -10 33 43 25 133 -8 93 -31 143 -89 196 -54 49 -56 49 -78 35z"/>
<path d="M2775 4275 c-50 -28 -79 -51 -79 -60 1 -11 -2 -13 -10 -7 -29 24
-148 55 -222 60 -114 6 -182 -15 -243 -76 -65 -66 -85 -138 -60 -225 12 -45
12 -45 -96 -102 -38 -21 -112 -62 -163 -92 -90 -53 -93 -55 -76 -74 14 -15 15
-21 4 -34 -10 -12 -29 -15 -85 -12 -40 3 -77 7 -83 10 -5 4 -28 -2 -51 -13
-86 -42 -159 -55 -311 -54 -116 1 -161 5 -225 23 -173 46 -327 147 -374 244
-32 66 -29 142 9 198 16 24 46 55 66 69 35 23 35 25 15 34 -17 7 -29 3 -59
-21 -20 -16 -50 -49 -67 -72 -28 -40 -30 -49 -33 -157 -3 -105 -2 -118 23
-171 88 -194 452 -333 766 -294 55 7 126 20 157 29 l56 18 81 -33 c83 -33 263
-83 302 -83 38 0 35 -19 -5 -31 -32 -9 -52 -8 -103 4 -71 17 -179 32 -179 24
0 -2 11 -30 26 -62 14 -32 21 -62 17 -66 -5 -5 -108 -53 -231 -107 l-222 -99
0 40 c0 89 -71 177 -188 234 -130 62 -262 66 -405 13 -215 -80 -277 -303 -122
-437 42 -37 102 -72 159 -93 l29 -11 -36 -33 c-21 -19 -37 -39 -37 -45 0 -16
58 -79 91 -98 22 -13 27 -22 23 -39 -4 -16 0 -26 15 -33 18 -10 21 -8 27 16
12 51 45 104 91 148 l45 44 -42 12 -43 13 74 12 c45 8 105 28 154 52 256 125
638 292 669 292 8 0 18 -9 21 -21 4 -12 29 -45 56 -75 65 -72 84 -135 76 -260
-7 -121 -36 -182 -128 -269 -99 -93 -236 -162 -409 -206 l-45 -11 44 -39 c25
-22 71 -55 104 -73 l59 -34 -53 -8 c-137 -20 -330 -1 -476 47 l-63 21 0 39 c0
36 -2 39 -27 39 -16 0 -52 7 -80 14 -29 8 -53 13 -53 11 0 -12 -139 61 -198
105 -118 85 -157 148 -170 272 l-7 72 -42 -64 -42 -64 32 -44 c57 -80 188
-202 295 -273 285 -191 628 -307 1077 -366 110 -14 208 -18 462 -18 l322 0 88
94 c98 105 107 117 72 107 -68 -20 -253 -66 -266 -66 -11 0 -11 5 5 28 25 36
42 87 42 128 0 31 3 34 43 44 64 16 267 80 267 85 0 2 -30 13 -67 25 -79 26
-143 59 -143 74 0 6 8 26 18 45 14 29 28 38 96 62 l79 27 146 -63 c81 -34 186
-81 234 -104 117 -56 157 -53 157 11 0 37 -34 58 -235 149 -88 40 -162 74
-165 76 -3 3 9 14 25 26 17 12 51 41 76 64 25 24 49 43 53 43 4 0 19 -14 33
-30 61 -73 171 -96 289 -61 212 63 380 278 360 460 -3 31 -7 64 -8 75 -2 14 7
22 37 33 66 23 66 34 -2 27 -55 -6 -64 -4 -94 19 -109 81 -218 85 -364 12 -88
-44 -214 -162 -199 -186 12 -19 -65 -138 -140 -217 -123 -129 -276 -219 -433
-257 -97 -24 -231 -17 -290 13 -80 42 -121 130 -103 222 12 61 12 60 -9 60
-11 0 -21 -9 -24 -21 -6 -21 -8 -20 -74 17 -119 68 -109 57 -85 91 25 35 62
142 62 180 0 25 10 34 97 81 l96 52 139 0 138 0 0 -86 0 -86 53 7 c182 24 384
105 482 192 l40 35 -29 22 c-127 92 -199 176 -212 243 -5 27 0 46 22 86 37 67
39 156 6 231 l-22 48 24 -6 c16 -4 29 1 47 20 13 14 38 34 56 45 l32 20 58
-33 58 -34 3 -60 c2 -59 2 -59 -39 -88 -45 -31 -79 -80 -79 -112 0 -33 55
-109 110 -153 29 -23 56 -41 61 -41 16 0 21 49 17 197 l-3 149 -39 79 c-28 56
-59 98 -110 150 -71 71 -173 145 -198 144 -7 0 -49 -20 -93 -44z m60 -155 c28
-31 8 -37 -23 -7 -19 20 -22 27 -11 27 9 0 24 -9 34 -20z m-869 -493 c25 -22
25 -24 10 -40 -31 -31 -126 -13 -126 23 0 44 72 55 116 17z m180 -48 c19 -15
18 -45 -2 -53 -34 -13 -84 -6 -106 16 l-21 21 24 20 c25 20 78 19 105 -4z
m365 1 c27 -15 24 -49 -6 -60 -53 -20 -133 21 -105 55 14 17 82 20 111 5z
m-172 -24 c33 -34 -23 -67 -85 -52 -13 4 -29 16 -35 28 -10 18 -8 24 7 35 24
18 90 11 113 -11z m270 -1113 c2 -2 -9 -3 -25 -3 -17 0 -39 6 -49 14 -17 12
-17 16 -6 30 13 15 17 14 45 -11 17 -15 33 -29 35 -30z m-155 17 c30 -11 35
-45 8 -59 -13 -7 -27 -2 -56 20 -39 29 -39 29 -15 38 31 13 33 13 63 1z"/>
<path d="M4040 4107 c0 -11 20 -16 84 -20 229 -18 453 -134 520 -269 42 -84
32 -157 -32 -229 l-30 -34 40 -45 39 -45 19 23 c31 38 43 99 38 198 -4 76 -10
100 -34 144 -81 150 -296 255 -581 285 -51 6 -63 4 -63 -8z"/>
<path d="M3357 3882 c-42 -46 -12 -80 146 -162 l86 -45 -6 -55 c-3 -30 -6 -57
-5 -60 0 -3 0 -20 1 -37 l1 -33 99 0 99 0 12 35 c13 40 16 41 80 18 46 -16 50
-16 88 1 l40 18 58 -34 c46 -27 60 -40 62 -61 3 -24 19 -35 150 -97 156 -75
183 -80 203 -36 8 17 8 29 0 45 -14 25 -153 96 -414 211 -103 45 -189 85 -192
89 -2 4 7 30 19 58 44 94 45 91 -22 82 -32 -5 -91 -20 -130 -34 l-71 -26 -80
40 c-44 22 -101 54 -127 71 -55 35 -74 37 -97 12z"/>
<path d="M4726 3293 c18 -89 -105 -170 -299 -198 -53 -8 -74 -42 -58 -94 6
-21 11 -68 11 -105 l0 -66 69 0 c74 0 80 -6 81 -67 0 -13 3 -23 8 -23 4 0 32
30 61 66 30 36 80 84 110 108 31 23 69 64 86 91 56 91 36 215 -49 294 l-26 25
6 -31z"/>
<path d="M4027 3152 c-6 -35 5 -107 17 -119 3 -4 6 15 6 40 0 39 4 49 26 63
27 18 24 24 -17 41 -26 11 -27 10 -32 -25z"/>
<path d="M1705 2860 c-4 -6 -28 -21 -53 -33 -47 -22 -47 -22 -18 -27 40 -7 56
-34 33 -57 -24 -24 -104 -25 -121 -1 -12 16 -17 16 -62 2 -27 -8 -82 -17 -121
-21 l-73 -6 0 -118 c0 -66 4 -119 9 -119 5 0 51 11 102 24 94 24 206 69 244
100 19 15 19 15 -12 16 -44 0 -63 9 -63 31 0 20 46 49 78 49 11 0 31 -9 45
-20 l25 -20 28 32 c15 18 33 48 41 67 13 31 13 36 -12 72 -25 38 -57 51 -70
29z"/>
<path d="M4350 2595 c-22 -27 -5 -34 23 -9 24 21 25 24 9 24 -11 0 -25 -7 -32
-15z"/>
<path d="M2850 1980 c0 -5 12 -10 28 -10 21 0 24 2 12 10 -20 13 -40 13 -40 0z"/>
</g>
</svg>
