<?xml version="1.0" standalone="no"?>
<!DOCTYPE svg PUBLIC "-//W3C//DTD SVG 20010904//EN"
 "http://www.w3.org/TR/2001/REC-SVG-20010904/DTD/svg10.dtd">
<svg version="1.0" xmlns="http://www.w3.org/2000/svg"
 width="512.000000pt" height="512.000000pt" viewBox="0 0 512.000000 512.000000"
 preserveAspectRatio="xMidYMid meet">

<g transform="translate(0.000000,512.000000) scale(0.100000,-0.100000)"
fill="#000000" stroke="none">
<path d="M1185 4788 c-183 -35 -343 -200 -375 -388 -8 -46 -10 -586 -8 -1880
l3 -1815 21 -56 c56 -146 157 -247 302 -302 l57 -22 1095 -3 c961 -2 1100 -1
1135 13 31 11 140 115 462 437 353 355 423 429 433 463 8 29 10 462 8 1610
l-3 1570 -23 60 c-63 167 -201 283 -376 316 -66 12 -2665 10 -2731 -3z m2735
-328 c26 -13 47 -34 60 -60 20 -39 20 -56 20 -1419 l0 -1379 -287 -4 c-275 -4
-291 -5 -348 -27 -148 -59 -244 -155 -297 -299 -20 -52 -22 -81 -26 -344 l-4
-288 -899 0 c-882 0 -901 0 -939 20 -26 13 -47 34 -60 60 -20 39 -20 55 -20
1841 l0 1801 21 38 c12 20 38 47 58 58 l36 22 1323 0 c1306 0 1323 0 1362 -20z
m-270 -3465 l-285 -285 -3 212 c-2 117 0 227 3 244 6 32 56 91 90 105 11 4
123 8 250 8 l230 1 -285 -285z"/>
<path d="M2605 3666 c-262 -51 -483 -231 -582 -476 -42 -104 -55 -192 -50
-320 6 -130 28 -214 85 -323 l35 -68 -236 -237 c-196 -198 -237 -244 -248
-279 -34 -117 77 -228 194 -194 35 11 81 52 279 248 l237 236 68 -35 c104 -55
194 -79 314 -85 124 -7 210 6 320 49 230 87 401 278 471 523 31 112 31 286 -1
399 -74 265 -280 472 -541 546 -96 27 -252 34 -345 16z m308 -336 c108 -41
214 -148 259 -260 19 -46 23 -75 23 -171 0 -113 -1 -116 -38 -191 -97 -197
-298 -298 -505 -254 -94 20 -164 57 -232 126 -128 127 -169 305 -110 476 47
137 179 259 316 293 68 17 222 7 287 -19z"/>
</g>
</svg>
