<?xml version="1.0" standalone="no"?>
<!DOCTYPE svg PUBLIC "-//W3C//DTD SVG 20010904//EN"
 "http://www.w3.org/TR/2001/REC-SVG-20010904/DTD/svg10.dtd">
<svg version="1.0" xmlns="http://www.w3.org/2000/svg"
 width="512.000000pt" height="512.000000pt" viewBox="0 0 512.000000 512.000000"
 preserveAspectRatio="xMidYMid meet">

<g transform="translate(0.000000,512.000000) scale(0.100000,-0.100000)"
fill="#000000" stroke="none">
<path d="M3173 4945 c-12 -8 -117 -188 -235 -400 l-213 -385 -538 0 -538 0
-24 -25 -25 -24 0 -313 0 -313 -45 -24 c-62 -33 -121 -99 -158 -179 l-32 -67
-3 -768 -3 -767 80 0 c51 0 81 4 83 12 3 9 12 9 38 0 91 -32 200 -3 276 72 76
77 84 109 84 343 0 216 5 238 63 273 41 25 73 25 114 0 62 -38 63 -42 63 -433
0 -412 1 -420 84 -503 114 -113 278 -113 392 0 85 86 84 77 84 623 0 523 -1
514 63 553 41 25 73 25 114 0 59 -36 63 -54 63 -313 0 -278 6 -304 84 -383
114 -113 278 -113 392 0 69 69 84 117 84 265 0 130 13 167 69 196 40 20 69 19
108 -5 67 -41 64 16 61 -982 l-3 -903 -22 -40 c-25 -47 -64 -85 -113 -111 -33
-18 -74 -19 -747 -22 l-713 -3 0 -80 0 -80 728 3 727 3 67 32 c92 43 151 101
194 189 31 63 37 85 42 163 l5 91 231 0 c171 0 248 4 295 15 206 49 367 210
416 416 22 96 22 1442 0 1538 -49 206 -210 367 -416 416 -47 11 -124 15 -295
15 l-231 0 -5 89 c-4 72 -11 102 -36 155 -36 78 -96 145 -157 177 l-45 24 0
311 c0 388 14 357 -164 364 l-126 5 145 260 c79 143 145 268 145 277 0 43 -23
67 -109 106 -190 88 -340 152 -358 152 -10 0 -28 -7 -40 -15z m75 -705 l-43
-80 -148 0 -148 0 43 80 43 80 148 0 148 0 -43 -80z m-620 -248 c-1 -5 -61
-113 -132 -240 l-128 -232 -304 0 -304 0 0 80 0 80 280 0 280 0 0 80 0 80
-280 0 -280 0 0 80 0 80 436 0 c240 0 434 -4 432 -8z m892 -72 l0 -80 -80 0
-80 0 0 -80 0 -80 80 0 80 0 0 -80 0 -80 -240 0 c-132 0 -240 3 -240 7 0 6
202 375 242 441 l20 32 109 0 109 0 0 -80z m-590 -245 c0 -3 -19 -39 -42 -80
l-42 -75 -143 0 c-79 0 -143 2 -143 5 0 3 18 39 41 80 l41 75 144 0 c79 0 144
-2 144 -5z m690 -339 c49 -26 88 -64 113 -111 21 -38 22 -54 25 -364 l3 -324
-23 7 c-105 31 -207 11 -281 -55 -76 -66 -91 -110 -97 -276 l-5 -143 -33 -32
c-28 -28 -39 -33 -82 -33 -43 0 -54 5 -82 33 l-33 32 -5 263 c-5 249 -6 264
-28 309 -45 92 -151 158 -252 158 -101 0 -207 -66 -252 -158 -23 -47 -23 -48
-28 -549 l-5 -503 -33 -32 c-28 -28 -39 -33 -82 -33 -43 0 -54 5 -82 33 l-33
32 -5 383 c-5 375 -5 383 -28 429 -81 164 -299 208 -435 88 -84 -74 -91 -102
-97 -357 l-5 -223 -33 -32 c-28 -28 -39 -33 -82 -33 -43 0 -54 5 -82 33 l-33
32 -3 618 c-2 466 0 628 10 662 15 55 96 140 148 157 25 8 307 11 970 10 891
-2 937 -3 970 -21z m805 -471 c138 -36 244 -143 280 -281 23 -88 22 -1401 0
-1489 -18 -69 -58 -135 -112 -186 -100 -94 -160 -109 -450 -109 l-223 0 0 119
0 120 229 3 c252 3 255 4 305 72 21 27 21 36 21 726 0 690 0 699 -21 726 -50
68 -53 69 -305 72 l-229 3 0 120 0 119 223 0 c168 0 237 -4 282 -15z m-105
-1025 l0 -640 -200 0 -200 0 0 640 0 640 200 0 200 0 0 -640z"/>
<path d="M323 1693 c16 -170 94 -344 209 -469 l38 -42 -150 -120 -150 -120 47
-59 c26 -32 48 -60 49 -62 2 -2 40 26 86 62 45 37 83 65 84 64 1 -1 -4 -27
-12 -57 -18 -71 -18 -211 1 -285 27 -106 72 -184 154 -266 76 -76 132 -112
241 -152 50 -19 82 -21 375 -25 265 -3 332 -1 388 12 294 68 469 369 380 651
-26 83 -47 116 -202 322 -172 229 -189 249 -255 298 -126 93 -250 131 -408
122 -123 -6 -203 -31 -294 -92 -35 -24 -64 -42 -64 -42 0 1 9 54 20 117 11 63
20 116 20 116 0 4 -153 25 -156 21 -3 -2 -18 -82 -34 -177 -16 -95 -31 -174
-33 -177 -6 -5 -67 70 -95 117 -30 52 -70 176 -78 248 l-7 62 -80 0 -80 0 6
-67z"/>
</g>
</svg>
