<?xml version="1.0" standalone="no"?>
<!DOCTYPE svg PUBLIC "-//W3C//DTD SVG 20010904//EN"
 "http://www.w3.org/TR/2001/REC-SVG-20010904/DTD/svg10.dtd">
<svg version="1.0" xmlns="http://www.w3.org/2000/svg"
 width="512.000000pt" height="512.000000pt" viewBox="0 0 512.000000 512.000000"
 preserveAspectRatio="xMidYMid meet">

<g transform="translate(0.000000,512.000000) scale(0.100000,-0.100000)"
fill="#000000" stroke="none">
<path d="M537 4740 c-142 -36 -253 -167 -264 -314 -3 -33 0 -79 6 -100 10 -38
9 -41 -30 -83 -63 -69 -84 -123 -84 -223 0 -98 18 -157 71 -226 l35 -45 -27
-55 c-58 -120 -37 -276 53 -374 l23 -26 -20 -52 c-25 -66 -25 -93 0 -119 28
-31 55 -36 88 -19 22 12 35 31 56 89 50 138 157 266 268 321 63 31 89 33 114
5 27 -30 31 -133 9 -231 -18 -77 -18 -79 2 -105 16 -22 35 -30 104 -44 142
-28 235 -88 298 -193 39 -65 71 -171 71 -233 l0 -43 -214 0 -214 0 -12 33 c-7
17 -14 85 -15 150 -2 105 -5 121 -23 140 -28 27 -77 27 -105 -2 -20 -20 -22
-32 -22 -134 0 -61 4 -129 8 -149 l8 -38 -116 0 -116 0 -21 47 c-11 26 -28 74
-38 107 -21 76 -53 104 -102 90 -21 -6 -38 -20 -47 -39 -12 -26 -11 -37 9
-104 12 -42 25 -84 27 -93 5 -16 -4 -18 -81 -18 -50 0 -100 -6 -119 -14 -42
-17 -93 -76 -107 -123 -8 -26 -10 -160 -8 -419 l3 -380 28 -43 c17 -26 45 -50
72 -63 l45 -22 0 -78 0 -78 -38 -19 c-47 -24 -77 -56 -97 -103 -23 -55 -23
-771 0 -826 21 -49 52 -81 100 -103 39 -18 128 -19 2445 -19 2317 0 2406 1
2445 19 48 22 79 54 100 103 23 55 23 771 0 826 -20 47 -50 79 -97 103 l-38
19 0 78 0 77 42 20 c25 12 55 39 73 64 l30 43 3 381 c2 259 0 394 -8 420 -14
47 -65 106 -107 123 -20 9 -72 14 -137 14 l-104 0 -16 70 c-8 38 -27 93 -42
121 -32 65 -112 146 -181 185 l-53 29 0 62 c0 80 -29 158 -80 215 l-39 45 25
77 c31 98 32 207 4 297 -10 35 -18 64 -17 64 79 31 170 117 209 196 39 80 54
173 40 245 -7 31 -17 63 -23 70 -30 36 -170 57 -276 41 -48 -7 -53 -6 -53 11
0 39 -61 140 -116 192 -50 48 -59 52 -90 47 -101 -17 -206 -102 -261 -213 -31
-64 -37 -88 -41 -158 l-4 -84 -44 -6 c-25 -3 -67 -15 -94 -27 l-49 -21 -28 33
c-42 50 -79 81 -131 109 -44 24 -47 28 -54 79 -28 192 -230 338 -420 302 -161
-29 -290 -159 -305 -305 -5 -53 -6 -54 -55 -77 -31 -14 -73 -48 -107 -86 l-57
-62 -27 22 c-26 21 -27 24 -17 82 12 73 -1 158 -36 226 -29 58 -57 79 -105 79
-49 0 -149 -32 -189 -60 l-31 -22 -47 46 c-49 50 -150 106 -189 106 -35 0
-114 -79 -147 -146 -17 -34 -30 -81 -34 -116 -3 -43 -10 -61 -21 -65 -64 -22
-144 -64 -188 -100 -29 -24 -57 -43 -62 -43 -4 0 -11 35 -13 78 -6 91 -36 160
-99 223 -49 49 -135 91 -201 97 -45 4 -49 7 -77 56 -57 102 -163 166 -280 172
-36 2 -83 -1 -104 -6z m31 -242 c12 -14 35 -49 50 -79 26 -52 29 -54 77 -62
117 -20 138 -29 195 -86 64 -65 80 -105 80 -207 l0 -69 -48 88 c-89 166 -160
237 -235 237 -53 0 -76 -15 -98 -63 -34 -77 -21 -225 43 -472 21 -83 27 -120
19 -123 -36 -12 -139 -92 -194 -152 l-65 -70 -13 32 c-22 54 -15 121 21 184
28 50 32 65 28 110 -4 45 -11 59 -50 103 -87 96 -86 189 2 286 56 62 72 106
59 162 -20 87 -6 164 38 215 14 15 19 16 42 4 14 -8 36 -25 49 -38z m2406
-129 c9 -29 16 -65 16 -80 0 -46 10 -58 82 -96 38 -20 84 -54 103 -76 69 -80
85 -203 40 -312 -22 -52 -23 -62 -11 -86 10 -21 11 -31 1 -48 -10 -19 -13 -6
-24 91 -25 220 -78 370 -141 403 -130 67 -215 -76 -250 -420 -6 -60 -14 -124
-16 -142 l-5 -32 -46 21 c-33 14 -58 19 -87 15 l-41 -6 3 90 c4 105 -8 173
-44 247 -23 47 -24 57 -14 82 16 39 80 96 130 116 51 20 88 64 95 112 17 118
46 175 109 213 l31 19 27 -29 c15 -17 34 -54 42 -82z m1115 36 c21 -40 26 -64
26 -125 0 -64 -4 -82 -27 -121 l-28 -47 -57 24 c-32 13 -65 24 -74 24 -32 0
-37 68 -13 151 18 61 99 153 130 147 10 -2 29 -25 43 -53z m-2265 -9 c17 -13
41 -42 54 -65 l23 -41 -85 0 c-96 0 -98 2 -71 67 16 37 33 63 43 63 3 0 19
-11 36 -24z m380 -52 c3 -9 6 -40 6 -71 0 -48 -2 -54 -17 -48 -10 3 -44 13
-75 22 -74 21 -77 42 -11 83 52 33 88 38 97 14z m2259 -123 c12 -11 -11 -110
-34 -147 -25 -41 -92 -100 -128 -112 -23 -8 -32 -4 -70 29 l-43 38 22 31 c12
17 30 53 39 81 10 27 23 55 29 61 30 30 160 43 185 19z m-3646 -276 c31 -60
71 -146 89 -190 38 -95 31 -108 -42 -78 -42 17 -46 22 -63 78 -25 81 -71 286
-71 316 1 24 1 24 16 4 9 -11 41 -69 71 -130z m3114 51 c83 -29 163 -81 223
-146 82 -87 110 -188 86 -303 -13 -66 -100 -242 -179 -365 l-53 -83 -47 7
c-118 17 -248 73 -381 163 -82 56 -112 62 -147 29 -34 -32 -31 -77 10 -115 79
-74 255 -168 385 -206 l82 -23 -91 -115 c-143 -180 -130 -169 -222 -169 -74 0
-80 -2 -108 -29 -16 -16 -29 -39 -29 -51 0 -12 13 -35 29 -51 l29 -29 711 0
c632 0 711 -2 725 -16 11 -10 16 -34 16 -75 l0 -59 -130 0 c-149 0 -184 -10
-221 -61 -23 -32 -24 -42 -24 -171 0 -122 2 -139 21 -164 46 -63 63 -68 214
-72 l140 -4 0 -52 c0 -29 -6 -61 -14 -72 -14 -19 -52 -19 -2386 -22 -2140 -3
-2374 -1 -2396 13 -21 14 -24 23 -24 80 l0 65 145 0 144 0 36 31 c47 42 58 89
53 225 -4 96 -7 115 -28 143 -36 51 -72 61 -220 61 l-130 0 0 58 c0 32 6 66
13 75 11 16 120 17 1550 19 l1539 3 19 24 c48 59 0 131 -89 131 l-27 0 0 157
c0 115 -5 173 -16 214 l-16 57 49 123 c51 130 184 410 211 444 15 20 16 20 49
-11 42 -40 161 -126 263 -191 145 -92 164 -97 209 -62 34 27 36 77 4 106 -13
11 -66 47 -118 79 -97 59 -276 190 -299 218 -12 14 -9 22 15 57 99 143 259
194 425 135z m-2892 -46 c23 0 103 -52 127 -82 15 -19 18 -37 16 -80 l-4 -56
-45 -4 c-38 -3 -47 0 -54 17 -4 11 -30 71 -57 132 -45 103 -47 111 -24 93 13
-11 32 -20 41 -20z m1985 -190 c20 -156 32 -421 19 -444 -8 -14 -17 -7 -59 46
-27 34 -52 68 -57 75 -14 23 16 345 45 477 l11 51 13 -42 c7 -23 20 -96 28
-163z m-1596 -213 c72 -25 143 -66 194 -111 l26 -24 -23 -48 c-21 -43 -34 -85
-63 -207 -6 -22 -18 -33 -63 -51 -30 -12 -73 -35 -93 -51 -37 -28 -38 -28 -49
-9 -6 10 -35 45 -66 77 l-55 58 14 42 c10 28 27 49 50 64 71 45 83 58 83 93 0
40 -32 70 -75 70 -65 0 -156 -71 -190 -147 -21 -48 -18 -47 -76 -30 l-44 13 0
124 -1 124 39 13 c115 41 276 41 392 0z m1352 -185 c168 -151 261 -422 219
-635 -7 -31 -15 -57 -18 -57 -4 0 -12 30 -18 66 -6 36 -19 74 -29 85 -24 26
-85 26 -110 -2 -18 -20 -19 -30 -11 -129 2 -25 2 -25 -94 -28 l-97 -3 -52 78
c-49 74 -51 80 -41 114 13 45 69 117 110 144 50 32 57 63 31 137 -26 74 -38
246 -21 291 l11 28 31 -18 c17 -10 57 -42 89 -71z m-345 43 l50 -14 2 -78 c1
-43 9 -109 17 -146 l16 -69 -46 -51 c-26 -29 -54 -67 -62 -84 -18 -37 -28 -40
-59 -15 -22 16 -22 18 -7 61 35 101 34 222 -2 248 -25 18 -68 16 -94 -5 -18
-14 -24 -33 -30 -97 -12 -110 -26 -148 -54 -141 -11 3 -29 6 -38 6 -14 0 -18
8 -18 35 0 54 -29 183 -56 249 -13 33 -21 63 -17 67 15 12 117 42 173 49 68 9
159 3 225 -15z m-553 -91 c55 -102 82 -229 75 -352 -6 -100 -25 -188 -54 -254
-13 -30 -22 -38 -42 -38 -21 0 -29 8 -43 40 -29 71 -104 64 -141 -13 l-17 -38
-98 3 -97 3 -6 70 c-3 39 -9 87 -14 108 -7 34 -5 40 29 71 40 36 86 59 152 76
59 15 77 39 85 121 5 39 17 99 29 134 23 70 74 149 93 142 6 -2 28 -35 49 -73z
m2427 -125 c6 -18 11 -43 11 -56 0 -22 -3 -23 -42 -17 -70 9 -71 10 -51 41 44
72 65 80 82 32z m-2136 -334 c78 -20 124 -45 185 -100 97 -87 100 -85 -114
-85 l-186 0 6 23 c4 12 15 57 24 100 9 42 19 77 22 77 3 0 32 -7 63 -15z
m-1803 -725 l0 -80 -110 0 -110 0 0 80 0 80 110 0 110 0 0 -80z m4600 0 l0
-80 -110 0 -110 0 0 80 0 80 110 0 110 0 0 -80z m-3415 -800 c9 -16 17 -31 18
-32 1 -2 711 -5 1577 -8 l1575 -5 3 -71 c3 -71 3 -71 -25 -77 -40 -8 -83 -44
-99 -83 -15 -35 -19 -214 -8 -274 9 -41 62 -95 103 -103 l32 -7 -3 -72 -3 -73
-2267 -3 c-2257 -2 -2268 -2 -2288 18 -15 15 -20 33 -20 74 l0 54 143 4 c154
3 176 10 214 66 15 23 18 48 18 169 0 127 -2 144 -21 170 -38 53 -75 63 -221
63 l-133 0 0 59 c0 41 5 65 16 75 14 14 81 16 587 16 l571 0 23 22 c13 12 23
27 23 35 0 10 21 13 85 13 84 0 85 0 100 -30z m-1185 -420 l0 -80 -110 0 -110
0 0 80 0 80 110 0 110 0 0 -80z m4600 0 l0 -80 -110 0 -110 0 0 80 0 80 110 0
110 0 0 -80z"/>
<path d="M3290 2982 c-29 -9 -60 -46 -60 -72 0 -40 22 -62 102 -105 69 -36 77
-38 105 -26 42 17 62 64 42 99 -23 42 -155 115 -189 104z"/>
</g>
</svg>
